<?xml version="1.0" standalone="no"?>
<!DOCTYPE svg PUBLIC "-//W3C//DTD SVG 20010904//EN"
 "http://www.w3.org/TR/2001/REC-SVG-20010904/DTD/svg10.dtd">
<svg version="1.0" xmlns="http://www.w3.org/2000/svg"
 width="1024.000000pt" height="1024.000000pt" viewBox="0 0 1024.000000 1024.000000"
 preserveAspectRatio="xMidYMid meet">

<g transform="translate(0.000000,1024.000000) scale(0.100000,-0.100000)" stroke="none">
<!-- border -->
<path fill="#0b1613" d="M5778 10185 c-140 -35 -271 -130 -346 -248 -141 -224 -262 -543 -311
-822 -81 -467 -22 -955 186 -1529 44 -120 47 -116 -99 -140 -57 -9 -175 -34
-263 -56 -556 -134 -963 -354 -1300 -701 -190 -196 -322 -381 -449 -632 -178
-350 -259 -686 -259 -1077 0 -339 55 -638 190 -1034 36 -103 61 -192 56 -196
-4 -5 -73 -20 -153 -35 -729 -132 -1270 -419 -1652 -875 -92 -110 -242 -329
-281 -412 -106 -224 -63 -473 113 -648 180 -181 438 -221 661 -104 98 52 166
117 239 230 52 80 66 95 84 92 28 -6 1654 -943 1681 -969 19 -19 19 -20 -33
-121 -80 -160 -100 -286 -67 -427 26 -109 71 -188 155 -271 87 -87 147 -122
256 -150 142 -37 278 -21 407 47 132 69 200 150 306 361 323 643 338 1345 49
2145 -34 94 -47 142 -40 149 5 5 77 22 158 38 562 106 984 287 1339 573 102
82 292 278 372 382 220 290 377 609 457 931 127 505 88 1000 -126 1622 -32 94
-57 176 -54 181 4 5 25 12 49 16 197 30 473 97 661 162 568 194 1007 540 1315
1035 81 129 112 216 118 328 14 253 -142 487 -384 571 -82 29 -220 35 -305 15
-159 -37 -276 -124 -377 -281 -42 -64 -68 -95 -81 -95 -26 0 -1694 966 -1698
983 -2 8 19 59 47 112 64 124 86 217 78 334 -9 147 -67 271 -175 373 -109 104
-213 147 -367 154 -67 2 -119 -1 -157 -11z m184 -286 c69 -15 96 -29 142 -76
56 -58 79 -114 79 -192 0 -63 -5 -77 -67 -203 -37 -75 -80 -176 -97 -225 -149
-439 -105 -881 148 -1492 36 -86 52 -136 45 -140 -12 -7 -445 -45 -521 -46
l-44 0 -34 85 c-55 141 -139 408 -166 530 -50 226 -62 330 -61 565 0 275 24
429 106 670 43 127 171 387 215 435 47 53 115 88 195 99 4 1 31 -4 60 -10z
m1097 -1445 c523 -302 760 -444 758 -454 -3 -21 -185 -140 -213 -140 -12 0
-164 81 -336 181 -172 99 -466 269 -653 376 -187 108 -348 205 -359 217 -16
18 -17 32 -12 111 10 137 15 158 37 152 10 -3 360 -202 778 -443z m1698 -145
c48 -23 93 -70 125 -132 17 -32 22 -59 22 -117 0 -86 -12 -115 -111 -265 -331
-501 -824 -814 -1513 -960 -281 -59 -456 -81 -1055 -130 -468 -38 -689 -63
-890 -100 -490 -90 -817 -244 -1080 -509 -238 -239 -408 -581 -456 -914 -19
-138 -6 -440 25 -589 35 -165 102 -376 176 -558 34 -82 64 -160 67 -172 6 -26
21 -23 -322 -53 -222 -19 -241 -19 -252 -4 -41 56 -170 466 -213 674 -38 191
-50 306 -50 497 0 431 111 797 357 1176 91 140 160 226 287 353 391 390 888
596 1686 698 63 9 306 31 540 51 524 43 673 59 868 90 393 64 689 169 937 332
149 99 326 280 438 450 48 72 101 142 119 155 85 60 204 71 295 27z m-1947
-352 c223 -129 406 -241 408 -249 2 -11 -14 -20 -60 -31 -141 -35 -537 -92
-593 -85 -22 3 -32 16 -66 93 -97 215 -205 516 -195 541 7 19 11 17 506 -269z
m-43 -1574 c39 -88 129 -363 162 -498 142 -567 98 -1067 -134 -1540 -339 -691
-886 -1081 -1750 -1249 -260 -50 -386 -65 -995 -116 -261 -22 -529 -46 -595
-55 -493 -63 -833 -170 -1103 -348 -188 -123 -319 -255 -457 -462 -84 -126
-112 -156 -175 -184 -51 -23 -141 -27 -204 -10 -50 14 -128 87 -157 147 -32
69 -30 161 5 232 77 154 231 355 384 501 255 245 546 410 927 527 330 101 613
145 1315 202 452 36 616 54 818 86 401 63 709 172 952 335 120 80 304 262 393
388 75 105 171 287 212 401 153 429 117 865 -120 1460 -41 102 -71 188 -67
192 8 8 402 45 500 47 l63 1 26 -57z m-913 -25 c42 -59 236 -563 236 -610 0
-10 -7 -18 -15 -18 -8 0 -215 116 -460 257 -308 178 -445 262 -443 273 5 23
247 72 513 104 153 19 152 19 169 -6z m-387 -634 c367 -212 672 -391 676 -397
4 -7 5 -55 2 -107 -7 -114 -14 -160 -26 -160 -4 0 -77 40 -161 89 -84 49 -427
247 -763 441 -335 193 -614 355 -619 360 -5 6 -3 16 5 26 19 23 188 134 204
134 7 0 314 -174 682 -386z m-1094 -11 c78 -40 1644 -947 1657 -959 13 -12 10
-23 -22 -87 -40 -81 -93 -157 -108 -157 -14 0 -1671 957 -1690 976 -13 12 -10
23 22 87 35 69 92 157 104 157 3 0 19 -7 37 -17z m535 -985 c419 -242 762
-443 762 -447 0 -20 -190 -151 -218 -151 -18 0 -1334 759 -1350 779 -11 12
-12 39 -7 115 8 135 14 159 34 151 9 -3 359 -204 779 -447z m-278 -480 c242
-139 440 -258 440 -265 0 -6 -4 -14 -9 -17 -38 -24 -639 -115 -662 -101 -22
14 -138 287 -208 491 -47 139 -50 159 -21 151 12 -3 219 -119 460 -259z m-33
-1540 c14 -18 83 -208 131 -360 41 -126 89 -332 114 -483 20 -124 17 -544 -5
-665 -42 -226 -110 -429 -209 -621 -73 -142 -103 -180 -171 -214 -145 -71
-301 -21 -375 119 -22 42 -27 63 -26 126 0 71 4 81 56 185 139 276 188 472
188 753 0 296 -54 536 -212 935 -41 103 -67 182 -62 186 9 9 405 47 510 50 31
0 55 -4 61 -11z m-872 -115 c79 -168 215 -535 215 -578 0 -8 -5 -15 -11 -15
-15 0 -879 498 -903 521 -19 18 -19 18 8 29 42 15 253 56 391 74 167 22 174
23 227 25 l47 1 26 -57z m-410 -593 c363 -210 666 -389 673 -398 10 -13 12
-39 7 -107 -9 -133 -14 -157 -35 -153 -9 2 -360 201 -779 443 -530 306 -761
444 -759 455 4 20 185 140 212 140 12 0 319 -171 681 -380z"/>

<!-- first semispiral -->
<path fill="#fa4d6a" d="M8525 8335 c-65 -24 -113 -72 -183 -179 -245 -380 -556 -596 -1045
-726 -261 -69 -501 -102 -1147 -155 -662 -55 -893 -87 -1197 -166 -717 -186
-1212 -574 -1518 -1191 -270 -544 -295 -1117 -79 -1789 43 -136 112 -318 128
-338 12 -15 57 -14 376 14 213 18 230 21 230 39 0 7 -21 62 -46 122 -108 259
-185 508 -220 719 -27 159 -25 429 5 575 43 211 127 410 249 594 234 351 557
564 1047 689 262 67 452 92 1110 147 646 54 922 92 1205 166 636 167 1090 487
1405 990 62 98 75 135 75 215 0 108 -53 201 -147 256 -38 22 -61 27 -127 30
-54 2 -95 -2 -121 -12z"/>
<path fill="#fa4d6a" d="M4520 2734 c-8 -2 -105 -10 -215 -19 -265 -21 -295 -25 -302 -41 -3
-7 20 -73 50 -146 248 -596 296 -1031 160 -1456 -15 -47 -59 -149 -97 -226
l-70 -141 -1 -95 c0 -86 3 -100 27 -141 55 -93 130 -140 234 -147 161 -10 239
51 345 268 296 604 302 1195 22 1969 -49 137 -60 162 -77 173 -11 8 -48 9 -76
2z"/>

<!-- second semispiral -->
<path fill="#b2e3d7" d="M5845 9921 c-91 -23 -164 -85 -216 -181 -197 -363 -278 -704 -266
-1113 8 -285 48 -489 157 -819 38 -113 79 -228 92 -255 l23 -48 70 0 c73 1
473 32 513 41 33 7 28 34 -29 169 -107 256 -191 545 -219 761 -16 121 -8 424
15 524 29 130 84 281 153 419 65 130 67 136 67 210 -1 122 -59 217 -166 269
-49 24 -147 36 -194 23z"/>
<path fill="#b2e3d7" d="M6675 6464 c-11 -2 -130 -13 -263 -24 -134 -11 -248 -22 -253 -26
-17 -10 -9 -36 65 -223 165 -413 221 -689 205 -1016 -10 -202 -53 -371 -145
-565 -239 -505 -637 -797 -1274 -934 -241 -52 -419 -74 -995 -121 -455 -38
-674 -61 -870 -95 -529 -90 -919 -246 -1250 -499 -82 -62 -265 -241 -335 -327
-75 -92 -195 -271 -223 -331 -31 -67 -30 -179 2 -245 30 -63 86 -119 147 -149
39 -18 65 -23 124 -23 130 0 204 56 322 240 213 334 557 564 1022 684 252 65
484 97 1006 140 464 38 644 55 830 81 510 71 883 191 1205 386 451 275 796
728 950 1248 70 235 89 395 82 668 -5 212 -22 336 -73 545 -52 212 -172 557
-202 580 -15 12 -35 13 -77 6z"/>

<!-- bridges -->
<path fill="#7b54c3" d="M6239 8918 c-8 -14 -14 -76 -17 -158 -4 -122 -3 -137 14 -152 15 -13
527 -311 1249 -726 50 -29 102 -52 115 -52 41 0 244 132 257 167 4 10 -2 23
-14 33 -29 23 -1552 902 -1573 907 -12 3 -23 -3 -31 -19z"/>
<path fill="#7b54c3" d="M4694 6091 c-100 -62 -169 -123 -162 -142 7 -19 1555 -912 1590 -917
37 -6 43 20 43 188 l0 135 -680 392 c-374 216 -687 393 -695 393 -9 0 -52 -22
-96 -49z"/>
<path fill="#7b54c3" d="M4085 5193 c-4 -10 -10 -82 -13 -160 l-4 -141 38 -25 c78 -50 1297
-750 1324 -760 25 -10 37 -6 109 38 103 62 175 125 167 145 -8 19 -1568 920
-1594 920 -11 0 -23 -8 -27 -17z"/>
<path fill="#7b54c3" d="M2535 2361 c-44 -27 -98 -65 -120 -84 -34 -30 -38 -38 -29 -54 11
-19 1568 -923 1590 -923 26 0 37 47 42 180 4 123 3 136 -14 151 -44 38 -1343
779 -1366 779 -13 0 -60 -22 -103 -49z"/>
</g>
</svg>
