<?xml version="1.0" standalone="no"?>
<!DOCTYPE svg PUBLIC "-//W3C//DTD SVG 20010904//EN"
 "http://www.w3.org/TR/2001/REC-SVG-20010904/DTD/svg10.dtd">
<svg version="1.0" xmlns="http://www.w3.org/2000/svg"
 width="8000.000000pt" height="2800.000000pt" viewBox="0 0 8000.000000 2800.000000"
 preserveAspectRatio="xMidYMid meet">

<g transform="translate(0.000000,3400.000000) scale(0.100000,-0.100000)" fill="#fa4d6a" stroke="none">
<path d="M41115 27164 c-451 -68 -779 -296 -960 -668 -206 -422 -174 -959 78
-1331 68 -99 203 -231 310 -302 221 -147 458 -215 757 -215 361 0 662 112 895
333 100 95 163 181 229 309 113 220 159 465 136 726 -28 322 -145 588 -350
794 -172 174 -363 277 -620 336 -64 15 -409 28 -475 18z"/>
<path d="M12545 26674 c-609 -33 -1179 -152 -1685 -351 -1357 -534 -2228
-1635 -2341 -2961 -15 -180 -7 -616 16 -797 66 -547 216 -978 474 -1367 410
-618 1078 -1051 2106 -1367 350 -107 681 -189 1405 -346 789 -171 1050 -238
1402 -355 776 -260 1183 -600 1333 -1116 39 -134 55 -261 55 -441 0 -424 -131
-755 -409 -1033 -351 -351 -867 -552 -1631 -637 -199 -22 -855 -25 -1025 -5
-447 54 -799 162 -1116 343 -595 341 -962 937 -1041 1693 l-12 116 -1023 0
-1023 0 0 -52 c0 -161 44 -511 95 -758 178 -862 606 -1626 1204 -2152 684
-601 1517 -934 2611 -1044 355 -35 1054 -30 1460 12 2164 221 3624 1301 3949
2919 116 577 74 1329 -105 1886 -194 605 -550 1089 -1083 1474 -239 173 -589
360 -921 493 -494 198 -1006 342 -2035 572 -1077 241 -1539 384 -1914 593
-371 207 -592 459 -685 780 -39 134 -49 240 -43 437 9 263 49 426 157 645 222
449 691 759 1345 890 454 91 1018 97 1429 15 386 -78 741 -238 1008 -457 96
-78 273 -265 341 -360 225 -315 372 -732 393 -1117 3 -56 7 -116 10 -133 l5
-33 1014 0 1015 0 0 23 c-1 73 -23 346 -40 485 -128 1045 -596 1938 -1336
2548 -647 533 -1475 848 -2474 939 -166 16 -727 27 -885 19z"/>
<path d="M22720 23343 c-825 -49 -1514 -241 -2072 -579 -197 -119 -359 -246
-537 -419 -409 -398 -682 -887 -831 -1488 -30 -121 -90 -447 -90 -490 0 -4
445 -7 990 -7 l990 0 5 23 c47 214 81 312 157 461 136 263 351 471 633 611
288 143 586 209 1000 222 500 14 939 -69 1254 -238 133 -71 214 -132 327 -244
159 -157 258 -316 329 -528 64 -192 100 -448 93 -661 l-3 -100 -1020 -142
c-2021 -283 -1994 -279 -2422 -384 -388 -96 -723 -213 -1019 -355 -789 -378
-1272 -927 -1445 -1640 -97 -401 -98 -904 -4 -1340 180 -831 673 -1410 1474
-1732 307 -123 666 -203 1096 -245 175 -17 779 -17 960 0 909 85 1563 338
2106 817 120 106 287 293 390 437 l74 102 2 -109 c7 -376 55 -846 103 -1017
l11 -38 966 0 c915 0 965 1 958 18 -24 59 -68 208 -95 316 -52 212 -87 438
-132 856 -7 73 -13 845 -18 2525 -4 1331 -9 2431 -13 2445 -3 14 -11 75 -17
135 -54 513 -228 1014 -489 1407 -192 289 -455 552 -741 742 -560 373 -1233
574 -2130 636 -131 9 -704 11 -840 3z m2247 -5310 c-5 -424 -10 -490 -57 -708
-49 -226 -164 -506 -286 -693 -373 -575 -996 -913 -1811 -982 -204 -18 -609
-8 -780 19 -697 107 -1040 424 -1095 1009 -34 361 73 663 313 886 227 210 589
368 1065 465 82 17 343 60 579 96 237 36 792 121 1235 189 443 68 813 124 824
125 17 1 18 -14 13 -406z"/>
<path d="M48285 23339 c-982 -75 -1833 -418 -2530 -1022 -129 -111 -359 -344
-466 -472 -539 -642 -899 -1465 -1028 -2351 -53 -362 -71 -879 -42 -1224 88
-1056 421 -1936 1010 -2675 125 -157 391 -427 550 -561 625 -521 1382 -843
2236 -949 395 -48 851 -48 1245 1 824 103 1585 424 2210 932 140 114 475 451
582 585 327 411 565 847 729 1337 22 63 39 115 39 117 0 2 -460 3 -1023 3
l-1023 0 -61 -122 c-100 -201 -194 -331 -356 -497 -349 -355 -817 -572 -1377
-637 -192 -22 -533 -15 -734 16 -785 119 -1383 540 -1734 1220 -144 279 -248
607 -291 925 -6 44 -14 95 -17 113 l-5 32 3389 0 3389 0 6 173 c16 423 7 799
-29 1107 -157 1375 -827 2540 -1864 3239 -581 391 -1218 616 -1975 697 -169
18 -664 26 -830 13z m785 -1678 c415 -72 771 -226 1063 -459 421 -335 716
-858 822 -1457 8 -49 18 -100 21 -112 l4 -23 -2370 0 c-2139 0 -2370 2 -2370
16 0 32 43 223 77 339 238 823 802 1408 1570 1629 267 77 426 96 778 92 231
-3 302 -7 405 -25z"/>
<path d="M59240 23344 c-901 -63 -1613 -363 -2127 -897 -124 -130 -209 -238
-298 -382 l-60 -97 -3 586 -2 586 -940 0 -940 0 0 -4445 0 -4445 1015 0 1014
0 4 2718 c3 2988 -1 2771 63 3075 183 870 776 1419 1663 1542 444 61 892 6
1217 -149 506 -242 792 -694 897 -1416 21 -144 21 -155 24 -2957 l4 -2813
1014 0 1015 0 0 2889 c0 1927 -4 2940 -11 3043 -77 1129 -497 2001 -1225 2549
-435 326 -954 520 -1594 594 -129 15 -608 27 -730 19z"/>
<path d="M68105 23340 c-1029 -74 -1872 -426 -2450 -1021 -486 -501 -735
-1101 -735 -1774 0 -710 205 -1268 616 -1680 354 -354 848 -598 1589 -783 254
-64 447 -104 920 -191 209 -39 459 -86 555 -106 899 -185 1288 -416 1402 -831
30 -112 30 -324 -1 -438 -107 -399 -479 -659 -1081 -755 -429 -69 -918 -50
-1308 50 -647 166 -1074 605 -1146 1176 l-12 98 -982 3 c-881 2 -982 1 -982
-13 0 -9 7 -80 16 -158 170 -1547 1176 -2545 2824 -2801 281 -44 457 -57 816
-63 780 -13 1396 80 1984 299 171 63 461 205 609 297 327 205 625 486 815 770
224 335 361 710 406 1116 14 127 14 471 0 612 -85 858 -493 1456 -1260 1847
-296 151 -589 255 -1025 366 -232 59 -482 111 -1143 240 -610 119 -907 202
-1158 325 -223 108 -364 234 -439 390 -49 101 -65 180 -65 323 -1 558 378 917
1085 1027 143 23 555 32 692 16 564 -67 981 -338 1206 -786 51 -102 104 -266
124 -383 l18 -102 973 0 974 0 -7 73 c-4 39 -17 135 -30 213 -89 534 -306
1030 -636 1454 -93 120 -285 318 -409 422 -515 432 -1149 679 -1950 758 -142
15 -657 21 -805 10z"/>
<path d="M33655 23209 c-521 -29 -894 -138 -1193 -346 -53 -37 -150 -119 -214
-181 l-118 -114 -82 35 c-191 81 -310 102 -532 94 -221 -8 -364 -45 -561 -142
-372 -184 -641 -546 -769 -1035 l-33 -125 -59 -2 c-345 -14 -634 -118 -881
-317 -225 -182 -356 -401 -418 -701 -23 -111 -30 -292 -16 -397 l12 -87 -138
-138 c-214 -214 -334 -378 -448 -615 -98 -205 -145 -364 -165 -563 -31 -295
42 -535 228 -753 l45 -53 1 -137 c2 -152 17 -211 87 -329 75 -127 268 -292
445 -381 l62 -31 -6 -283 c-11 -609 56 -938 403 -1973 79 -236 160 -486 179
-555 105 -376 159 -727 158 -1025 -1 -208 8 -243 77 -308 76 -71 173 -87 266
-43 131 60 162 173 144 516 -27 484 -96 791 -349 1550 -152 455 -229 708 -284
925 -61 244 -106 545 -106 700 l1 80 47 -90 c52 -100 187 -272 297 -378 215
-208 440 -350 663 -416 104 -31 354 -85 451 -97 l53 -7 -6 -36 c-8 -53 -43
-364 -57 -521 -22 -229 -16 -652 15 -965 37 -393 49 -669 43 -995 -12 -589
-100 -1071 -288 -1576 -102 -274 -336 -706 -648 -1194 -70 -111 -225 -378
-269 -465 -122 -244 -272 -693 -272 -815 0 -93 80 -202 169 -228 92 -28 196 1
258 71 28 33 73 130 73 161 0 27 71 255 112 356 105 267 142 333 488 885 142
226 435 768 505 934 74 177 174 492 230 725 142 590 171 1297 89 2181 -44 478
-43 644 7 1090 11 100 25 219 32 265 l12 85 205 7 c421 14 766 92 1075 242
331 162 652 431 814 683 25 40 53 72 62 73 8 0 49 -11 90 -25 58 -20 294 -75
322 -75 3 0 30 -35 60 -77 65 -93 253 -281 363 -364 102 -78 227 -137 392
-188 178 -55 240 -68 373 -82 185 -18 568 7 774 51 354 77 688 251 896 467
121 124 238 303 295 448 15 39 30 74 34 78 4 4 87 14 186 23 588 48 1019 215
1304 503 115 115 173 196 243 336 100 202 132 341 124 540 -8 183 -55 354
-133 477 -13 20 -24 43 -24 50 0 8 41 43 92 78 334 235 582 613 644 980 23
142 15 337 -19 470 -51 194 -145 364 -278 505 -91 96 -162 149 -278 209 -50
26 -91 50 -91 54 0 38 -25 193 -40 254 -60 233 -234 499 -445 678 -412 350
-998 524 -1622 482 -177 -12 -347 -36 -465 -67 -71 -18 -75 -16 -102 55 -51
131 -204 303 -370 414 -517 347 -1371 533 -2221 485z m775 -438 c208 -29 476
-84 618 -127 321 -97 601 -242 730 -378 122 -129 149 -273 102 -535 -20 -111
-7 -186 43 -239 81 -87 240 -82 311 10 35 46 44 76 62 192 8 55 20 106 27 113
35 34 329 90 530 101 717 38 1335 -243 1571 -715 52 -103 78 -224 77 -358 -1
-213 -68 -384 -205 -521 -75 -74 -231 -184 -263 -184 -7 0 -27 28 -44 63 -68
133 -172 263 -241 298 -79 40 -199 14 -251 -54 -70 -93 -60 -198 27 -294 54
-60 104 -150 128 -227 82 -271 -148 -547 -520 -622 -64 -13 -153 -28 -197 -33
-97 -12 -121 -20 -164 -57 -89 -75 -95 -217 -13 -300 50 -50 106 -67 191 -60
130 12 312 47 411 78 349 111 623 378 699 678 17 72 20 76 62 99 247 132 346
198 453 300 117 113 193 222 252 366 19 47 40 81 49 83 10 2 49 -29 98 -80
143 -145 210 -307 210 -513 0 -90 -5 -126 -27 -200 -94 -320 -336 -592 -667
-750 -85 -40 -288 -111 -476 -165 -109 -31 -162 -84 -178 -176 -13 -84 34
-173 116 -215 58 -29 128 -25 265 17 237 72 230 71 254 49 29 -26 95 -166 111
-235 22 -94 16 -223 -15 -315 -66 -193 -182 -354 -330 -460 -167 -118 -431
-214 -711 -259 -150 -24 -318 -37 -326 -24 -4 5 -9 40 -13 77 -32 317 -258
733 -580 1069 -90 94 -272 254 -353 311 -29 20 -55 42 -57 48 -3 7 2 32 10 55
25 69 44 184 44 262 0 175 -51 356 -198 701 -153 359 -188 502 -179 725 3 69
11 141 17 162 l10 36 107 7 c59 4 165 4 237 1 230 -13 351 -49 421 -128 52
-56 74 -112 84 -210 12 -125 44 -178 131 -217 105 -48 217 -3 267 106 23 49
24 61 18 141 -17 203 -81 349 -210 477 -91 91 -162 136 -275 176 -174 62 -198
64 -735 64 -575 0 -581 1 -790 105 -136 68 -228 133 -330 235 -170 169 -245
342 -245 569 0 129 -15 174 -75 223 -72 60 -158 66 -242 17 -67 -39 -93 -94
-100 -206 -28 -486 282 -951 812 -1216 55 -27 141 -63 190 -80 80 -26 125 -36
257 -57 21 -3 39 -9 42 -13 2 -4 0 -56 -5 -116 -10 -122 1 -319 26 -442 24
-117 82 -284 180 -514 94 -221 139 -348 156 -432 13 -69 13 -168 1 -180 -7 -7
-85 33 -234 120 -271 158 -478 267 -1050 553 l-440 220 8 42 c11 65 8 362 -5
456 -40 281 -145 518 -304 687 -191 203 -430 314 -564 263 -33 -12 -90 -64
-108 -99 -58 -114 6 -252 136 -295 89 -29 126 -52 205 -127 63 -60 83 -87 125
-172 70 -143 109 -313 109 -477 0 -57 -3 -69 -16 -69 -9 0 -59 16 -111 36
-130 48 -316 98 -470 126 -114 20 -160 23 -418 23 -278 0 -292 -1 -337 -22
-84 -38 -128 -105 -128 -192 1 -93 69 -181 155 -199 25 -5 89 -5 161 1 155 14
405 -3 574 -38 262 -54 347 -90 1090 -462 766 -383 946 -477 1235 -648 469
-276 627 -387 825 -584 188 -186 321 -366 414 -562 123 -255 139 -497 49 -714
-37 -88 -126 -220 -202 -298 -253 -263 -736 -417 -1206 -386 -277 18 -450 71
-630 192 -71 48 -175 145 -175 163 0 7 30 29 68 49 37 20 101 62 142 93 86 64
273 249 295 293 52 100 12 229 -88 281 -52 27 -138 29 -183 5 -17 -9 -80 -65
-140 -124 -60 -60 -138 -128 -174 -151 -80 -52 -200 -92 -300 -99 -92 -7 -258
23 -388 68 -191 68 -439 215 -577 341 -185 170 -251 182 -428 81 -116 -66
-198 -98 -322 -124 -119 -26 -367 -36 -505 -20 -202 24 -475 92 -608 152 -68
31 -172 101 -210 142 l-23 25 44 68 c224 347 270 751 119 1049 -60 120 -183
264 -249 292 -82 34 -197 6 -246 -59 -69 -93 -61 -196 22 -283 83 -87 128
-177 146 -291 15 -97 -31 -286 -101 -413 -151 -276 -489 -484 -939 -577 -112
-23 -155 -27 -310 -28 -163 -1 -190 2 -285 26 -201 51 -359 136 -463 248 -98
106 -108 193 -35 320 38 68 165 194 240 238 137 81 330 144 490 161 97 9 231
0 353 -25 94 -20 134 -15 197 25 64 40 92 101 86 185 -3 46 -10 73 -27 98 -50
73 -111 96 -320 123 -69 9 -129 19 -133 21 -4 3 -8 33 -8 68 0 232 209 577
483 799 56 46 76 81 84 147 8 67 -30 145 -89 186 -37 26 -50 29 -117 29 -72 0
-79 -2 -136 -40 -228 -152 -497 -524 -594 -822 -33 -100 -57 -278 -48 -353 3
-25 3 -51 -1 -56 -4 -5 -54 -25 -112 -44 -199 -64 -423 -193 -535 -309 -21
-23 -44 -41 -50 -41 -7 0 -23 24 -37 53 -132 271 17 757 344 1126 45 52 91 99
100 105 12 7 29 4 66 -13 40 -19 62 -23 110 -19 80 6 132 41 168 114 33 68 30
120 -14 221 -18 39 -44 116 -58 170 -24 89 -26 109 -21 228 10 230 71 387 205
523 191 194 430 292 717 293 106 0 147 -4 226 -25 189 -48 344 -139 500 -295
228 -227 338 -481 464 -1066 78 -365 112 -479 183 -623 163 -328 460 -534 827
-572 83 -8 188 -3 311 16 40 6 41 5 75 -42 193 -268 602 -520 949 -585 95 -18
301 -15 380 5 88 22 203 70 275 114 48 30 65 48 88 91 34 69 35 121 2 188 -35
70 -90 106 -170 111 -54 3 -68 -1 -145 -39 -145 -71 -236 -84 -378 -54 -242
50 -536 236 -666 419 -103 145 -135 263 -114 414 9 64 8 92 -1 125 -28 94
-103 150 -201 150 -63 0 -101 -17 -147 -65 -53 -55 -65 -104 -69 -272 -3 -107
-7 -152 -16 -158 -7 -4 -40 -8 -73 -8 -158 0 -328 70 -435 179 -122 123 -171
252 -265 684 -64 296 -119 494 -180 652 -176 456 -461 770 -869 960 -53 24
-96 50 -96 57 0 27 50 197 80 273 163 414 466 651 870 681 103 8 243 -14 325
-50 30 -14 55 -26 55 -28 0 -2 -16 -44 -35 -93 -145 -367 -121 -716 75 -1124
119 -245 184 -314 299 -315 38 0 69 7 96 21 51 27 69 47 96 107 31 70 23 127
-28 208 -88 138 -166 325 -198 472 -22 100 -16 279 13 376 75 252 236 479 452
640 201 148 441 231 795 274 185 23 208 24 525 21 228 -2 316 -7 440 -24z
m-3624 -5672 c96 -101 295 -217 470 -275 286 -93 539 -136 819 -137 289 0 488
34 680 120 117 51 112 52 186 -9 35 -29 95 -73 132 -97 37 -24 67 -49 67 -55
0 -42 -177 -242 -309 -348 -344 -278 -724 -408 -1266 -433 -267 -13 -800 59
-1053 141 -232 76 -423 211 -594 419 -94 113 -192 288 -186 330 3 17 16 21 93
32 120 17 276 56 405 99 116 39 354 152 440 208 30 19 62 36 71 36 8 0 28 -14
45 -31z"/>
<path d="M40280 18695 l0 -4445 1015 0 1015 0 0 4445 0 4445 -1015 0 -1015 0
0 -4445z"/>
<path d="M29768 12416 c-138 -37 -214 -193 -158 -324 43 -100 141 -159 248
-149 68 6 107 23 152 69 128 127 71 351 -102 403 -61 18 -77 18 -140 1z"/>
<path d="M29559 11652 c-188 -98 -184 -358 6 -448 96 -46 192 -27 272 52 56
56 73 97 73 179 -1 180 -194 299 -351 217z"/>
<path d="M29382 10874 c-111 -55 -165 -179 -130 -298 16 -55 101 -140 154
-155 172 -48 328 66 326 239 0 74 -26 133 -78 178 -76 68 -181 82 -272 36z"/>
</g>
</svg>
