<?xml version="1.0" standalone="no"?>
<!DOCTYPE svg PUBLIC "-//W3C//DTD SVG 20010904//EN" "http://www.w3.org/TR/2001/REC-SVG-20010904/DTD/svg10.dtd">
<svg version="1.0" xmlns="http://www.w3.org/2000/svg" width="8000.000000pt" height="4000.000000pt" viewBox="0 0 8000.000000 4000.000000" preserveAspectRatio="xMidYMid meet">
    <g transform="translate(0.000000,4000.000000) scale(0.100000,-0.100000)" fill="#fa4d6a" stroke="none">
    <path d="M42305 27144 c-627 -97 -1045 -602 -1045 -1262 0 -66 5 -155 11 -197
    65 -472 361 -829 810 -979 156 -52 268 -69 454 -69 297 0 534 67 753 215 272
    184 453 484 503 836 15 109 6 392 -16 492 -114 516 -484 873 -993 961 -135 23
    -341 24 -477 3z"/>
    <path d="M11108 26644 c-884 -74 -1661 -332 -2303 -765 -772 -520 -1300 -1294
    -1470 -2154 -50 -257 -59 -360 -59 -685 0 -401 28 -650 109 -970 246 -973 881
    -1640 1975 -2073 457 -181 921 -309 1857 -512 268 -59 585 -129 703 -157 904
    -212 1416 -431 1740 -744 289 -279 414 -589 413 -1024 0 -207 -17 -321 -73
    -491 -84 -254 -226 -464 -428 -632 -410 -342 -995 -524 -1832 -568 -755 -40
    -1386 84 -1866 368 -594 352 -940 925 -1025 1696 l-12 107 -1023 0 -1024 0 0
    -29 c0 -15 5 -86 10 -157 107 -1358 713 -2449 1730 -3117 933 -612 2214 -849
    3713 -687 1077 117 2014 469 2702 1016 143 114 448 420 551 554 318 412 518
    848 618 1350 90 451 84 1012 -15 1517 -169 863 -641 1525 -1422 1995 -563 338
    -1246 574 -2442 843 -1306 293 -1664 397 -2072 596 -576 283 -843 667 -843
    1209 1 464 179 870 503 1148 339 290 826 462 1452 513 213 17 653 7 820 -19
    576 -90 1010 -299 1345 -648 331 -346 517 -788 561 -1335 l12 -149 1014 0
    1013 0 0 53 c0 28 -5 115 -10 192 -136 1864 -1239 3188 -3016 3621 -293 71
    -604 119 -939 144 -191 14 -775 11 -967 -6z"/>
    <path d="M33565 23379 c-537 -43 -915 -154 -1224 -357 -113 -74 -186 -135
    -313 -260 l-107 -105 -93 40 c-129 57 -215 82 -338 98 -214 29 -441 11 -647
    -51 -569 -171 -950 -608 -1136 -1299 l-32 -120 -131 -7 c-572 -30 -1089 -356
    -1305 -824 -49 -106 -103 -298 -118 -420 -14 -113 -14 -280 0 -379 l10 -77
    -146 -146 c-152 -151 -268 -288 -353 -414 -347 -519 -453 -1109 -272 -1513 38
    -85 121 -210 188 -285 l50 -56 -10 -59 c-36 -219 68 -478 267 -664 180 -167
    409 -286 700 -361 l140 -36 37 -124 c24 -83 62 -176 112 -275 62 -123 92 -170
    169 -263 l94 -113 -58 -112 c-109 -210 -204 -477 -305 -857 -66 -249 -86 -354
    -119 -620 -14 -113 -34 -268 -45 -345 -31 -223 -39 -340 -47 -665 -21 -809 1
    -1359 68 -1735 11 -60 31 -177 44 -260 31 -184 71 -356 98 -413 24 -53 93
    -115 145 -130 86 -26 190 -5 251 51 13 12 34 45 47 72 29 61 31 138 9 306 -9
    63 -24 231 -36 374 -11 143 -31 348 -44 455 -48 391 -69 627 -81 895 -10 257
    21 712 67 954 11 58 24 160 28 226 9 136 76 520 122 700 36 142 99 330 184
    550 34 88 65 168 68 178 4 10 10 16 14 14 5 -3 38 -23 75 -46 181 -110 333
    -166 613 -226 397 -85 965 -121 1332 -85 63 6 117 9 120 6 3 -3 6 -90 6 -193
    0 -270 -45 -543 -118 -729 -16 -38 -104 -224 -198 -414 -228 -465 -333 -716
    -457 -1100 -21 -63 -77 -234 -125 -380 -125 -384 -186 -630 -246 -999 -76
    -467 -129 -906 -161 -1326 -20 -259 -16 -1188 5 -1530 22 -335 44 -617 57
    -715 9 -75 23 -238 60 -705 55 -703 61 -1536 15 -2053 -49 -541 -154 -1008
    -320 -1427 -172 -432 -364 -776 -745 -1330 -75 -110 -142 -215 -148 -234 -26
    -76 -4 -180 51 -240 33 -36 115 -71 167 -71 70 0 118 18 167 63 58 53 448 637
    582 872 321 563 519 1084 635 1680 54 278 84 551 107 970 13 245 6 1166 -11
    1440 -19 313 -51 724 -80 1035 -40 424 -39 406 -56 650 -21 291 -30 1223 -15
    1475 40 664 199 1720 290 1935 11 25 59 167 106 315 85 264 202 568 305 796
    101 223 128 286 190 449 35 91 110 271 168 400 137 309 165 383 196 520 51
    228 59 309 65 638 l6 314 110 37 c476 162 945 509 1197 886 33 50 61 91 62 92
    2 2 36 -8 77 -22 92 -32 242 -70 334 -85 l70 -11 55 -81 c64 -95 297 -330 416
    -419 103 -77 229 -142 373 -191 342 -117 540 -141 917 -114 268 19 417 42 599
    93 596 166 1016 515 1220 1014 l34 84 103 7 c498 36 828 115 1165 280 362 177
    608 441 753 806 69 176 84 253 84 442 0 97 -5 190 -12 225 -28 129 -83 275
    -138 366 -19 31 -34 59 -34 62 0 3 32 27 72 53 201 134 400 336 530 539 109
    168 208 411 239 585 20 108 17 372 -5 483 -47 244 -170 477 -344 655 -102 104
    -189 168 -316 231 l-91 46 -7 83 c-14 169 -60 322 -147 487 -69 132 -116 200
    -219 319 -234 272 -605 500 -1010 620 -443 132 -970 148 -1467 44 -55 -11
    -111 -23 -125 -25 -23 -4 -28 3 -58 70 -52 117 -108 195 -217 303 -301 298
    -854 533 -1544 654 -283 50 -433 62 -796 65 -198 2 -409 -1 -470 -6z m925
    -493 c394 -51 736 -133 1000 -239 346 -139 565 -289 648 -444 61 -116 74 -232
    46 -418 -34 -227 -30 -271 34 -346 47 -54 101 -79 177 -79 75 0 128 24 177 78
    43 48 62 105 82 245 7 54 17 102 22 107 29 29 320 88 543 111 256 26 626 -9
    874 -82 453 -135 808 -401 963 -724 177 -366 92 -818 -196 -1051 -71 -57 -225
    -154 -244 -154 -7 0 -27 30 -45 68 -77 156 -207 316 -284 347 -23 10 -67 18
    -98 18 -172 1 -290 -185 -213 -335 9 -17 41 -61 71 -97 30 -36 75 -108 101
    -160 l47 -94 0 -111 c-1 -92 -4 -121 -24 -169 -77 -193 -302 -356 -566 -411
    -66 -14 -172 -32 -235 -41 -130 -18 -181 -41 -223 -102 -35 -51 -47 -86 -47
    -135 0 -120 84 -221 202 -242 73 -13 419 44 570 94 241 81 472 244 620 439 66
    87 132 225 159 332 l21 86 67 33 c409 201 645 425 781 744 21 50 45 92 53 94
    20 4 141 -111 193 -183 159 -224 198 -527 99 -789 -127 -339 -381 -607 -729
    -772 -104 -49 -364 -141 -495 -174 -102 -26 -150 -49 -190 -92 -131 -139 -37
    -380 152 -396 57 -4 199 29 371 88 50 16 98 30 107 30 24 0 60 -49 103 -140
    66 -140 84 -308 46 -454 -54 -211 -186 -415 -349 -540 -234 -179 -626 -308
    -1051 -346 -174 -15 -156 -24 -169 80 -33 256 -135 509 -318 789 -179 274
    -414 526 -698 748 -65 51 -109 93 -108 102 0 9 14 57 29 106 24 82 27 104 27
    245 0 145 -3 164 -36 290 -36 138 -85 269 -209 560 -83 194 -131 330 -152 438
    -20 100 -36 268 -30 324 16 143 28 208 40 219 21 17 538 6 625 -15 137 -32
    225 -87 276 -173 31 -53 53 -138 53 -208 1 -95 56 -179 145 -221 119 -56 245
    -9 307 114 l32 64 -12 122 c-13 143 -38 232 -94 336 -133 248 -357 396 -683
    447 -105 17 -343 21 -860 15 -280 -3 -353 5 -491 52 -226 77 -488 263 -624
    444 -127 169 -180 334 -180 562 0 123 -15 166 -75 219 -52 45 -93 61 -160 61
    -94 0 -186 -60 -220 -144 -20 -49 -26 -186 -15 -311 33 -345 210 -672 500
    -920 279 -239 587 -388 890 -429 l85 -12 -5 -64 c-3 -36 -5 -144 -4 -240 2
    -323 39 -463 252 -965 98 -231 134 -333 157 -443 16 -80 20 -179 6 -201 -7
    -10 -63 19 -247 126 -320 187 -479 271 -1142 602 l-563 282 8 47 c14 89 8 430
    -11 546 -51 316 -166 568 -345 758 -226 239 -502 360 -656 287 -84 -39 -143
    -147 -130 -237 15 -105 71 -168 188 -211 107 -40 154 -70 233 -149 111 -110
    185 -265 229 -477 18 -85 32 -293 22 -319 -5 -13 -16 -11 -78 14 -171 71 -422
    138 -639 171 -266 40 -712 36 -820 -7 -50 -20 -112 -89 -128 -142 -27 -90 1
    -199 66 -254 67 -56 105 -62 285 -49 334 26 700 -29 1032 -154 112 -42 1452
    -707 1819 -902 236 -126 670 -380 888 -519 490 -314 892 -787 1023 -1204 76
    -242 66 -456 -30 -659 -193 -406 -603 -657 -1205 -737 -156 -20 -422 -14 -591
    15 -185 32 -371 106 -511 205 -68 48 -188 160 -188 176 0 5 35 27 78 49 116
    61 233 154 373 298 140 144 155 172 147 283 -3 46 -11 70 -34 102 -41 59 -111
    100 -180 106 -92 8 -129 -14 -268 -153 -171 -173 -280 -240 -455 -282 -118
    -28 -321 -3 -517 62 -208 69 -501 242 -674 398 -52 47 -120 100 -150 119 -50
    30 -61 33 -135 33 -79 0 -81 0 -185 -60 -199 -114 -334 -154 -588 -175 -241
    -20 -541 18 -842 105 -210 61 -315 115 -421 214 l-49 46 50 75 c218 323 295
    738 194 1046 -50 155 -130 289 -235 393 -79 79 -123 100 -209 101 -57 0 -73
    -5 -120 -32 -94 -57 -132 -167 -98 -281 7 -24 36 -66 75 -108 158 -172 192
    -361 109 -614 -57 -175 -152 -319 -287 -435 -210 -181 -508 -316 -854 -386
    -128 -27 -158 -29 -350 -29 -196 0 -217 2 -318 28 -361 91 -632 307 -615 488
    11 113 132 284 273 385 116 82 312 163 490 202 122 26 337 23 486 -7 138 -28
    187 -24 256 22 133 89 137 299 8 389 -51 35 -166 65 -309 79 -178 18 -160 4
    -153 119 7 117 37 214 106 345 106 202 261 399 390 494 91 67 117 100 137 167
    29 101 -8 200 -99 261 -125 84 -239 46 -440 -147 -175 -168 -295 -330 -415
    -560 -111 -211 -153 -367 -156 -579 l-3 -133 -119 -39 c-65 -22 -182 -70 -259
    -109 -145 -72 -236 -134 -341 -232 -34 -32 -66 -58 -72 -58 -17 0 -61 100 -77
    175 -52 245 47 613 245 914 74 113 143 201 237 301 l70 74 60 -27 c106 -47
    208 -31 280 44 78 83 85 178 23 323 -23 53 -52 140 -66 192 -55 219 -14 513
    97 700 48 80 175 212 264 273 103 72 240 134 365 168 98 26 118 28 295 27 163
    0 201 -3 267 -21 301 -85 577 -296 751 -574 136 -219 239 -526 342 -1019 69
    -335 123 -517 198 -665 78 -157 236 -341 376 -439 125 -88 298 -160 462 -191
    105 -19 321 -20 414 0 38 8 73 15 76 15 3 0 21 -21 39 -47 57 -80 230 -251
    325 -322 124 -93 219 -150 366 -220 390 -187 769 -197 1079 -29 108 58 135 81
    164 140 80 160 -31 343 -209 343 -52 0 -74 -7 -165 -52 -132 -65 -187 -77
    -304 -70 -356 22 -817 329 -952 633 -37 84 -57 218 -44 296 21 135 8 203 -53
    266 -87 92 -208 104 -312 32 -84 -58 -118 -174 -114 -390 l3 -125 -56 -9 c-42
    -7 -80 -5 -149 8 -269 49 -439 186 -546 438 -34 81 -85 281 -148 573 -154 721
    -334 1107 -667 1432 -165 159 -349 284 -538 364 -41 17 -78 34 -82 38 -4 4 6
    57 22 119 123 460 383 781 730 904 127 46 196 59 330 65 104 4 155 2 216 -11
    98 -19 200 -60 197 -78 -1 -7 -18 -56 -39 -108 -102 -266 -127 -534 -74 -801
    54 -265 239 -665 356 -768 133 -117 342 -47 384 129 16 67 0 131 -51 211 -139
    214 -239 510 -239 704 0 305 188 671 463 902 135 114 247 182 405 246 365 149
    1066 205 1632 133z m-4052 -6457 c150 -136 316 -228 547 -302 296 -95 524
    -135 821 -144 376 -11 631 32 887 150 l88 40 27 -22 c68 -55 224 -171 252
    -187 16 -10 30 -23 30 -30 0 -26 -127 -179 -236 -283 -293 -282 -626 -454
    -1034 -535 -360 -72 -691 -82 -1035 -32 -60 9 -159 23 -220 32 -243 34 -512
    107 -646 174 -249 126 -513 387 -632 625 -86 172 -89 158 45 180 356 56 705
    185 972 357 33 21 61 38 63 38 3 0 35 -27 71 -61z"/>
    <path d="M21600 23334 c-36 -2 -135 -8 -220 -14 -1639 -117 -2755 -844 -3224
    -2102 -80 -216 -156 -523 -189 -765 l-14 -103 992 0 992 0 12 67 c35 191 148
    448 266 604 341 455 976 682 1786 639 380 -20 658 -82 915 -205 474 -225 742
    -621 803 -1187 12 -104 15 -378 5 -378 -26 0 -2699 -378 -2838 -401 -1836
    -307 -2873 -1060 -3090 -2243 -39 -210 -50 -362 -43 -625 11 -423 80 -760 223
    -1088 344 -791 1071 -1289 2104 -1442 281 -41 363 -46 805 -45 382 0 451 3
    614 22 738 90 1294 294 1770 649 161 120 429 390 551 557 l95 128 2 -68 c16
    -465 57 -877 106 -1044 l13 -45 965 -3 966 -2 -34 97 c-64 183 -122 454 -162
    753 -57 429 -54 306 -61 2910 -6 2170 -8 2417 -23 2530 -61 457 -155 782 -323
    1119 -309 623 -814 1075 -1514 1356 -420 169 -882 269 -1450 315 -130 11 -686
    20 -800 14z m2127 -5331 c-5 -459 -10 -514 -71 -757 -97 -380 -275 -697 -540
    -961 -363 -360 -822 -565 -1440 -642 -182 -23 -621 -23 -805 0 -671 84 -1044
    361 -1147 850 -40 190 -37 424 7 593 74 288 289 526 625 693 268 132 559 215
    1019 287 603 95 2294 352 2323 353 l34 1 -5 -417z"/>
    <path d="M49566 23330 c-969 -64 -1822 -395 -2521 -979 -129 -108 -361 -337
    -477 -471 -897 -1036 -1282 -2483 -1067 -4010 169 -1201 753 -2256 1624 -2935
    619 -483 1332 -766 2195 -871 183 -22 720 -30 928 -15 609 47 1163 196 1676
    453 193 97 276 144 456 264 652 432 1184 1070 1503 1805 50 113 135 342 160
    427 l16 52 -1024 0 -1023 0 -51 -106 c-99 -207 -227 -381 -413 -559 -319 -307
    -731 -502 -1230 -582 -161 -26 -642 -26 -808 0 -776 121 -1339 491 -1706 1123
    -178 306 -313 727 -359 1117 l-6 57 3384 0 3385 0 6 23 c13 49 18 745 7 927
    -45 716 -200 1334 -480 1915 -659 1365 -1895 2211 -3441 2355 -159 14 -578 20
    -734 10z m704 -1675 c425 -64 803 -225 1111 -473 88 -71 248 -232 320 -322
    176 -220 337 -537 423 -831 32 -112 74 -300 82 -371 l7 -58 -2368 0 -2367 0 7
    56 c10 81 68 301 115 437 258 747 799 1279 1511 1486 158 46 276 68 509 95 92
    11 540 -2 650 -19z"/>
    <path d="M60520 23333 c-865 -46 -1582 -329 -2097 -827 -170 -164 -313 -344
    -404 -509 l-29 -52 0 593 0 592 -940 0 -940 0 0 -4445 0 -4445 1015 0 1015 0
    3 2728 c3 2540 4 2735 21 2842 117 768 452 1275 1034 1565 476 238 1181 291
    1686 128 248 -80 420 -184 597 -362 317 -318 482 -754 519 -1371 6 -101 10
    -1204 10 -2847 l0 -2683 1015 0 1016 0 -4 2973 c-3 3201 0 3010 -52 3362 -111
    755 -420 1414 -878 1876 -407 410 -921 680 -1532 804 -338 68 -717 96 -1055
    78z"/>
    <path d="M69435 23333 c-153 -7 -419 -36 -583 -63 -766 -129 -1420 -439 -1894
    -899 -242 -234 -409 -461 -549 -746 -115 -236 -180 -441 -226 -712 -23 -136
    -26 -622 -4 -773 49 -352 152 -667 296 -905 343 -568 926 -926 1900 -1169 217
    -54 433 -98 900 -185 675 -126 887 -173 1135 -253 489 -157 748 -373 831 -693
    28 -107 30 -288 5 -397 -86 -379 -400 -637 -921 -758 -224 -52 -352 -64 -700
    -64 -349 0 -473 11 -701 64 -522 122 -910 400 -1095 785 -74 154 -108 275
    -134 468 l-6 47 -981 0 -981 0 7 -82 c55 -650 270 -1237 623 -1701 101 -132
    309 -346 448 -460 495 -407 1178 -671 1965 -761 275 -31 456 -38 838 -33 368
    5 523 16 782 53 1110 159 1951 626 2426 1349 208 316 333 670 380 1073 22 188
    14 569 -16 766 -121 797 -533 1347 -1287 1721 -168 83 -418 181 -623 245 -325
    100 -621 167 -1508 340 -601 117 -899 200 -1147 320 -220 106 -362 233 -440
    395 -56 116 -70 182 -68 330 3 384 189 678 542 854 247 124 504 178 891 188
    239 6 359 -3 530 -38 454 -93 811 -353 1005 -731 66 -129 118 -279 141 -410
    l18 -98 973 0 974 0 -6 53 c-51 445 -161 824 -346 1183 -351 683 -912 1178
    -1647 1455 -490 184 -1112 270 -1747 242z"/>
    <path d="M41510 18685 l0 -4445 1020 0 1020 0 0 4445 0 4445 -1020 0 -1020 0
    0 -4445z"/>
    <path d="M29045 9664 c-58 -20 -106 -64 -140 -125 -112 -203 105 -427 313
    -323 198 99 186 377 -19 449 -51 18 -101 18 -154 -1z"/>
    <path d="M29154 8586 c-182 -85 -174 -354 13 -433 39 -16 140 -17 180 -2 96
    36 153 119 153 223 0 76 -24 129 -78 178 -70 63 -177 77 -268 34z"/>
    <path d="M29427 7616 c-131 -47 -193 -195 -135 -327 37 -87 140 -147 233 -136
    168 18 264 195 189 345 -53 106 -177 157 -287 118z"/>
    <path d="M29599 6639 c-85 -13 -141 -57 -178 -139 -39 -85 -23 -177 42 -248
    54 -58 106 -82 182 -82 144 0 247 100 246 241 0 156 -125 254 -292 228z"/>
    <path d="M29663 5549 c-59 -11 -96 -33 -136 -79 -42 -50 -62 -114 -54 -180 19
    -163 192 -257 342 -186 92 43 135 112 135 215 0 70 -10 101 -51 152 -50 64
    -146 96 -236 78z"/>
    <path d="M29565 4491 c-46 -20 -101 -79 -121 -127 -16 -39 -18 -114 -4 -164
    36 -131 219 -201 355 -136 60 28 87 56 114 116 52 114 1 254 -112 309 -57 28
    -174 29 -232 2z"/>
    <path d="M29280 3445 c-62 -28 -102 -67 -127 -122 -75 -163 39 -339 217 -338
    79 1 132 25 184 86 45 54 59 97 54 169 -5 76 -46 144 -111 184 -58 36 -161 46
    -217 21z"/>
    </g>
</svg>
