<?xml version="1.0" standalone="no"?>
<!DOCTYPE svg PUBLIC "-//W3C//DTD SVG 20010904//EN"
 "http://www.w3.org/TR/2001/REC-SVG-20010904/DTD/svg10.dtd">
<svg version="1.0" xmlns="http://www.w3.org/2000/svg"
 width="2000.000000pt" height="2000.000000pt" viewBox="0 0 2000.000000 2000.000000"
 preserveAspectRatio="xMidYMid meet">

<g transform="translate(0.000000,2000.000000) scale(0.100000,-0.100000)"
fill="#000000" stroke="none">
<path d="M10275 19939 c-189 -14 -478 -48 -594 -70 -564 -108 -976 -320 -1343
-691 -64 -65 -118 -118 -121 -118 -2 0 -46 20 -98 44 -147 68 -269 105 -421
126 -82 12 -388 15 -463 5 -410 -54 -773 -224 -1054 -490 -292 -277 -521 -695
-635 -1160 -15 -61 -30 -116 -34 -122 -4 -6 -62 -13 -132 -17 -378 -21 -695
-119 -980 -301 -233 -149 -448 -369 -567 -580 -170 -303 -245 -698 -201 -1072
l12 -102 -170 -168 c-199 -198 -313 -334 -439 -523 -203 -303 -341 -636 -402
-965 -24 -131 -28 -400 -9 -532 35 -238 135 -445 311 -647 l65 -74 -11 -84
c-29 -224 46 -465 206 -665 115 -144 279 -273 490 -385 l120 -63 -1 -95 c-6
-754 -4 -814 31 -1080 56 -432 215 -1031 480 -1805 253 -737 326 -989 404
-1385 75 -386 93 -562 95 -920 1 -227 3 -248 22 -290 31 -64 84 -121 145 -155
50 -28 61 -30 159 -30 97 0 109 2 152 28 111 65 163 152 178 294 17 156 7 485
-20 703 -57 451 -116 740 -237 1150 -14 47 -33 112 -43 145 -19 66 -118 364
-258 775 -210 615 -362 1181 -411 1530 -6 41 -15 104 -21 140 -16 103 -25 410
-12 410 5 0 35 -49 66 -108 57 -112 77 -140 258 -358 160 -193 386 -387 626
-536 139 -86 270 -146 423 -192 122 -36 501 -119 604 -131 33 -4 68 -11 78
-17 19 -10 19 -15 -4 -168 -12 -84 -33 -283 -61 -585 -36 -398 -26 -1014 22
-1365 15 -105 38 -433 51 -710 13 -268 6 -935 -10 -1055 -6 -44 -18 -147 -26
-230 -58 -558 -181 -1057 -405 -1635 -94 -243 -479 -936 -820 -1475 -279 -441
-404 -677 -538 -1010 -113 -282 -212 -622 -220 -750 -8 -156 86 -285 244 -331
148 -43 315 37 384 183 12 25 36 104 55 177 119 464 281 818 620 1351 369 579
753 1273 890 1604 101 247 234 660 299 931 151 625 203 1162 192 1950 -5 385
-32 903 -51 1005 -9 50 -35 378 -47 608 -9 165 -9 263 0 405 15 238 39 518 51
602 6 36 13 94 16 130 11 114 38 295 47 306 5 7 91 13 246 17 777 19 1375 196
1907 565 276 190 555 463 706 691 39 58 77 109 84 113 7 4 52 -6 101 -22 128
-44 254 -76 374 -96 79 -14 109 -23 122 -39 9 -11 51 -65 91 -120 93 -125 359
-385 488 -478 178 -128 413 -225 738 -306 191 -48 258 -55 516 -55 451 0 757
41 1096 145 601 184 1062 555 1313 1058 29 58 64 134 76 169 13 34 27 65 32
68 6 4 87 12 181 20 371 29 603 68 864 142 266 77 540 200 742 336 118 79 297
246 390 364 159 201 294 487 347 732 29 131 26 410 -5 549 -31 142 -73 257
-137 379 -30 57 -54 111 -54 121 0 12 25 35 67 62 171 111 329 250 461 404
191 223 332 469 416 726 66 202 80 292 80 504 0 213 -17 324 -75 498 -131 397
-411 723 -762 887 -98 46 -91 34 -107 186 -84 777 -777 1451 -1761 1713 -498
133 -1200 136 -1731 8 -52 -13 -100 -21 -106 -19 -7 2 -33 46 -57 98 -130 279
-342 482 -720 692 -130 72 -407 191 -593 256 -326 113 -778 206 -1267 262
-164 19 -810 27 -1000 13z m945 -573 c672 -80 1159 -210 1588 -425 308 -154
487 -318 552 -504 47 -132 48 -267 5 -511 -19 -106 -19 -198 0 -243 71 -171
279 -232 423 -125 89 65 109 111 141 326 11 71 25 135 33 142 30 28 282 88
508 121 95 13 192 17 405 18 300 0 359 -5 610 -56 738 -150 1313 -605 1446
-1144 26 -105 36 -315 20 -425 -40 -269 -162 -494 -351 -643 -94 -74 -262
-177 -289 -177 -14 0 -29 20 -55 73 -89 184 -247 379 -341 423 -64 30 -170 33
-230 5 -103 -47 -156 -125 -163 -241 -5 -96 11 -136 96 -237 103 -123 174
-264 195 -391 12 -74 0 -176 -33 -269 -67 -192 -298 -390 -550 -471 -84 -27
-238 -58 -414 -83 -107 -15 -151 -26 -188 -46 -160 -87 -191 -310 -61 -439 79
-80 158 -95 353 -70 396 52 622 128 870 290 312 206 501 474 574 817 5 21 22
35 88 67 247 122 454 260 596 397 164 157 265 303 350 505 25 58 50 108 55
112 27 17 137 -75 227 -187 110 -139 180 -307 206 -498 18 -128 14 -219 -17
-347 -110 -460 -433 -842 -909 -1078 -131 -65 -391 -157 -622 -221 -150 -41
-200 -68 -243 -131 -30 -43 -55 -118 -55 -165 0 -100 68 -203 165 -252 92 -47
220 -28 544 82 58 19 113 35 122 35 49 0 153 -182 189 -330 30 -128 35 -220
16 -328 -38 -221 -167 -464 -336 -632 -274 -275 -767 -456 -1395 -514 -125
-12 -163 -13 -172 -3 -6 7 -19 63 -28 125 -64 450 -295 890 -716 1367 -139
158 -478 462 -616 552 -29 19 -29 40 1 133 38 117 50 225 43 389 -10 257 -53
400 -277 928 -184 431 -231 611 -233 888 -2 157 15 311 38 342 12 16 36 18
250 22 513 7 738 -55 853 -236 39 -62 60 -136 71 -254 13 -139 54 -210 151
-263 135 -74 296 -26 377 112 22 38 28 61 31 132 9 178 -45 393 -135 542 -187
311 -461 466 -907 514 -129 14 -207 15 -531 8 -516 -12 -679 -10 -800 11 -252
43 -503 166 -733 359 -227 191 -364 405 -423 661 -6 28 -14 129 -18 225 -6
169 -8 178 -35 224 -29 49 -93 102 -149 123 -46 17 -136 16 -189 -3 -61 -20
-117 -70 -153 -135 -28 -51 -30 -61 -33 -196 -7 -237 24 -416 110 -630 158
-397 532 -776 996 -1008 204 -102 377 -154 639 -191 17 -3 34 -11 37 -19 3 -9
1 -59 -4 -113 -20 -207 -7 -449 35 -658 35 -171 96 -348 228 -659 188 -444
234 -583 244 -747 6 -95 0 -133 -21 -141 -8 -3 -83 35 -168 85 -476 280 -595
344 -1527 813 l-656 330 2 45 c2 25 4 155 5 290 2 266 -8 373 -58 580 -46 187
-141 408 -236 549 -236 347 -669 602 -895 527 -58 -19 -131 -85 -159 -143 -25
-53 -30 -150 -10 -210 31 -94 99 -151 234 -197 86 -30 156 -74 244 -155 184
-170 290 -442 320 -820 9 -124 9 -153 -2 -166 -17 -20 -22 -19 -192 44 -228
85 -496 150 -768 187 -159 22 -685 26 -798 6 -124 -21 -194 -68 -238 -159 -75
-152 3 -340 162 -390 48 -15 69 -15 231 -3 449 34 944 -49 1368 -230 116 -49
1854 -919 2090 -1046 271 -146 717 -405 1000 -582 550 -343 950 -755 1200
-1235 108 -207 161 -387 172 -589 13 -240 -48 -439 -208 -678 -354 -530 -1197
-810 -2056 -685 -192 28 -435 122 -600 232 -108 71 -253 207 -253 237 0 16 17
30 73 59 163 83 308 198 488 385 141 147 163 190 157 302 -4 60 -10 87 -31
123 -52 88 -140 137 -246 137 -102 -1 -133 -20 -310 -193 -212 -208 -304 -268
-493 -319 -210 -57 -541 -6 -843 130 -226 102 -471 257 -625 396 -100 90 -221
179 -267 197 -40 15 -151 13 -199 -4 -22 -8 -65 -30 -95 -50 -253 -161 -525
-230 -909 -230 -196 1 -323 14 -525 54 -256 51 -505 127 -625 191 -123 65
-260 175 -260 208 0 8 25 53 56 100 299 457 365 990 173 1399 -80 172 -238
369 -340 422 -62 33 -195 34 -255 2 -99 -53 -162 -170 -151 -280 8 -72 36
-124 112 -205 140 -148 200 -331 175 -530 -30 -242 -140 -473 -310 -652 -261
-274 -673 -471 -1183 -567 -141 -27 -465 -37 -589 -20 -260 38 -507 134 -683
267 -293 220 -299 439 -20 720 151 151 322 246 574 319 268 77 476 83 760 25
52 -11 111 -20 131 -20 94 0 204 73 246 165 46 98 28 224 -44 306 -66 75 -210
116 -512 144 -36 3 -71 10 -78 14 -31 19 -21 187 20 326 42 144 178 388 313
559 72 92 218 238 285 283 100 68 143 145 143 253 -1 84 -26 142 -87 198 -53
49 -90 67 -156 77 -117 17 -242 -56 -445 -259 -314 -314 -562 -747 -630 -1096
-9 -47 -18 -154 -20 -239 -3 -85 -9 -159 -14 -164 -5 -5 -75 -31 -154 -57
-302 -100 -524 -230 -724 -423 -42 -41 -66 -58 -78 -54 -25 10 -82 144 -101
237 -32 161 -5 391 72 619 71 213 219 481 364 662 97 122 231 259 251 259 11
0 41 -12 65 -26 59 -35 152 -43 222 -20 71 24 133 82 167 157 37 84 32 150
-23 279 -111 263 -142 456 -107 680 50 332 178 549 434 738 235 174 520 264
836 264 159 0 290 -22 429 -73 293 -106 567 -321 754 -592 184 -266 298 -577
426 -1158 31 -140 70 -317 87 -394 114 -510 322 -862 642 -1083 147 -102 371
-192 562 -228 119 -22 348 -23 473 0 50 9 98 16 106 16 7 0 36 -31 65 -69 180
-242 451 -457 786 -622 239 -117 408 -167 642 -190 257 -25 498 28 734 160 93
53 123 82 156 149 50 103 29 235 -51 315 -60 61 -110 81 -196 82 -71 0 -81 -3
-205 -62 -153 -72 -209 -87 -330 -85 -159 1 -300 40 -500 137 -179 87 -326
187 -451 308 -174 167 -258 314 -291 506 -15 85 -15 109 -3 198 22 168 2 245
-85 321 -90 79 -211 93 -315 36 -129 -70 -174 -201 -168 -487 4 -177 9 -170
-131 -169 -200 1 -418 85 -555 213 -178 166 -266 358 -352 759 -70 330 -139
624 -183 777 -155 531 -350 888 -652 1192 -198 198 -427 357 -661 456 -55 24
-105 48 -111 54 -16 16 5 112 58 276 139 426 385 745 701 907 314 161 709 196
979 85 78 -32 84 -44 61 -104 -10 -26 -36 -98 -57 -159 -115 -327 -127 -650
-39 -994 63 -245 235 -619 356 -773 104 -133 286 -153 409 -45 63 56 95 124
95 204 0 77 -12 112 -69 199 -136 211 -259 539 -280 750 -34 343 121 742 411
1059 341 373 796 559 1508 616 74 6 155 12 180 14 121 10 694 -3 820 -18z
m-4778 -7827 c239 -208 470 -318 887 -425 309 -78 543 -107 866 -107 399 0
652 47 944 177 57 25 110 46 118 46 8 0 58 -35 111 -77 54 -43 134 -102 179
-131 45 -30 84 -61 88 -69 8 -23 -65 -128 -168 -243 -192 -215 -467 -420 -742
-558 -476 -237 -1228 -338 -1850 -248 -93 13 -225 32 -293 41 -165 23 -446 85
-577 129 -198 67 -370 165 -543 311 -107 90 -154 139 -272 280 -73 88 -105
138 -161 251 -40 80 -72 157 -72 175 l-2 34 115 17 c420 62 811 202 1165 417
55 33 103 61 107 61 3 0 48 -36 100 -81z"/>
<path d="M4981 5146 c-97 -32 -186 -118 -217 -210 -23 -67 -15 -196 15 -254
30 -60 96 -123 156 -151 73 -35 182 -40 257 -11 147 55 234 206 209 362 -12
71 -53 149 -100 190 -83 73 -223 105 -320 74z"/>
<path d="M4705 4102 c-80 -39 -147 -112 -174 -194 -44 -129 -15 -255 78 -349
75 -75 146 -102 251 -97 91 5 152 32 214 94 65 65 89 123 94 224 5 110 -19
179 -87 249 -72 74 -119 94 -226 98 -83 4 -95 2 -150 -25z"/>
<path d="M4487 3046 c-151 -63 -224 -178 -215 -339 7 -130 60 -211 181 -274
45 -24 63 -28 142 -28 78 0 97 4 147 28 61 30 125 95 161 162 18 33 22 57 22
140 0 84 -4 107 -23 147 -75 152 -265 228 -415 164z"/>
</g>
</svg>
